<svg width="144" height="71" viewBox="0 0 144 71" fill="none" xmlns="http://www.w3.org/2000/svg">
<path fill-rule="evenodd" clip-rule="evenodd" d="M0 2H66V68H0V2ZM54.3168 32.4348C56.3579 32.6046 57.7759 34.3078 57.7759 34.3078L57.7753 34.3079C59.7012 34.3079 60.6657 35.8403 60.6666 35.8426V39.8732C59.1362 41.0372 54.7993 41.3209 54.7993 41.3209C54.2888 41.3209 54.3179 40.725 54.3179 40.725C54.3179 34.3667 49.1593 34.4803 49.1593 34.4803C43.4333 34.4803 43.9426 41.2356 43.9426 41.2356C43.9426 42.0867 43.2615 42.0305 43.2615 42.0305H23.305C22.4543 42.0305 22.5671 41.2924 22.5671 41.2924V38.7949C21.3768 34.4225 17.7479 34.4793 17.7479 34.4793C11.5687 34.4793 12.2485 41.292 12.2485 41.292L5.95524 39.8722C5.2187 39.531 5.16197 39.0779 5.16197 39.0779V35.3307C5.16197 34.1959 7.2597 32.7195 7.2597 32.7195C18.882 26.816 26.7631 26.3041 26.7631 26.3041C32.716 25.7364 35.3244 26.9284 35.3244 26.9284L42.9215 31.1855C46.3793 31.9804 54.3168 32.4348 54.3168 32.4348ZM8.26678 33.087C8.26678 33.087 5.91386 34.6051 5.91386 35.7412H5.91394C5.91394 35.7412 10.9594 35.6971 11.4 33.087C11.4 33.087 9.56931 32.6127 8.26678 33.087ZM16.8133 30.7872C16.8133 30.7872 16.3595 31.3831 19.4777 31.3831V31.3825H22.5007V28.5127C20.1047 29.1603 16.6269 30.2081 16.8133 30.7872ZM25.8848 34.6652H27.2454C27.5038 34.6652 27.7135 34.5357 27.7135 34.3776C27.7135 34.2192 27.5034 34.0906 27.2454 34.0906H25.8848C25.6258 34.0906 25.4167 34.2192 25.4167 34.3776C25.4167 34.5366 25.6267 34.6652 25.8848 34.6652ZM23.3105 28.2981V31.3831L40.3993 31.3832L34.9845 28.1761C34.9845 28.1761 31.4124 26.3314 24.6938 27.9492C24.6938 27.9492 24.1317 28.0842 23.3105 28.2981ZM54.0259 33.1146C55.333 32.9393 57.2521 34.6778 57.2521 34.6778C54.2998 35.0988 54.0259 33.1146 54.0259 33.1146ZM17.498 35.2219C15.0493 35.2219 13.0645 37.2003 13.0645 39.6478C13.0645 42.0895 15.049 44.0724 17.498 44.0724C19.9454 44.0724 21.9302 42.0912 21.9302 39.6478C21.9299 37.2003 19.9454 35.2207 17.498 35.2219ZM17.4974 40.3512C17.1068 40.3512 16.7923 40.0361 16.7923 39.6471C16.7923 39.2577 17.1072 38.9423 17.4974 38.9423C17.8866 38.9423 18.2011 39.2574 18.2011 39.6471C18.2011 40.0349 17.8872 40.3512 17.4974 40.3512ZM18.1648 38.4805C18.0666 38.4243 17.9616 38.3806 17.8492 38.35V37.3726C18.2237 37.4301 18.5665 37.5735 18.8589 37.7873L18.1648 38.4805ZM17.1435 38.3506C17.0257 38.3828 16.9146 38.4294 16.8116 38.4902L16.1207 37.8002C16.4156 37.5799 16.763 37.4314 17.1438 37.3726L17.1435 38.3506ZM16.3203 38.9947C16.2678 39.0882 16.2266 39.1886 16.1973 39.295H15.2205C15.2768 38.9275 15.4166 38.5895 15.6249 38.3002L16.3203 38.9947ZM16.1973 39.9998C16.2276 40.111 16.2717 40.2162 16.3287 40.3142L15.6352 41.0062C15.4218 40.7149 15.2775 40.3731 15.2199 39.9997L16.1973 39.9998ZM16.8274 40.812C16.9262 40.8682 17.0312 40.9126 17.1435 40.9432V41.9206C16.7691 41.8631 16.4262 41.719 16.1339 41.5045L16.8274 40.812ZM17.8492 40.9441C17.9557 40.9152 18.0549 40.8743 18.1492 40.8219L18.8446 41.5171C18.5555 41.7258 18.2172 41.8653 17.8492 41.9216L17.8492 40.9441ZM18.6556 40.3306C18.7165 40.2281 18.7635 40.1175 18.7954 39.9991H19.7728C19.7145 40.3789 19.5658 40.7258 19.3459 41.0203L18.6556 40.3306ZM18.7954 39.2947C18.7651 39.1821 18.7204 39.0763 18.664 38.9783L19.3575 38.2857C19.5716 38.5783 19.7158 38.9207 19.7728 39.2947L18.7954 39.2947ZM44.6927 39.6478C44.6927 37.2003 46.6778 35.2219 49.1262 35.2219C51.574 35.2207 53.5584 37.2003 53.5584 39.6478C53.5584 42.0912 51.5734 44.0724 49.1262 44.0724C46.6775 44.0724 44.6927 42.0895 44.6927 39.6478ZM48.4204 39.6471C48.4204 40.0361 48.735 40.3512 49.1256 40.3512C49.5155 40.3512 49.8298 40.0349 49.8294 39.6471C49.8294 39.2574 49.5148 38.9423 49.1256 38.9423C48.7347 38.9423 48.4204 39.2577 48.4204 39.6471ZM49.4775 38.35C49.5899 38.3806 49.6948 38.4243 49.793 38.4805L50.4866 37.7873C50.1949 37.5735 49.852 37.4301 49.4775 37.3726V38.35ZM48.4397 38.4902C48.5427 38.4294 48.6532 38.3828 48.7717 38.3506L48.772 37.3726C48.3917 37.4314 48.0437 37.5799 47.7487 37.8002L48.4397 38.4902ZM47.8257 39.295C47.855 39.1886 47.8962 39.0882 47.9487 38.9947L47.2531 38.3002C47.0454 38.5895 46.9057 38.9275 46.8487 39.295H47.8257ZM47.9567 40.3142C47.8997 40.2162 47.8563 40.111 47.826 39.9998L46.8484 39.9997C46.9054 40.3731 47.0497 40.7149 47.2638 41.0062L47.9567 40.3142ZM48.772 40.9432C48.6596 40.9126 48.5546 40.8682 48.4558 40.812L47.7622 41.5045C48.0546 41.719 48.3975 41.8631 48.772 41.9206V40.9432ZM49.7776 40.8219C49.6833 40.8743 49.5841 40.9152 49.4775 40.9441L49.4775 41.9216C49.8455 41.8653 50.1846 41.7258 50.4731 41.5171L49.7776 40.8219ZM50.4245 39.9991C50.392 40.1175 50.3449 40.2281 50.2841 40.3306L50.9745 41.0203C51.1944 40.7258 51.3431 40.3789 51.4014 39.9991H50.4245ZM50.2931 38.9783C50.3494 39.0763 50.3936 39.1821 50.4245 39.2947L51.4014 39.2947C51.3444 38.9207 51.2001 38.5783 50.986 38.2857L50.2931 38.9783Z" fill="black"/>
<path d="M87.1359 48H82.7012C82.5993 48 82.5483 47.9363 82.5483 47.8088L82.6248 20.914C82.6248 20.812 82.6758 20.7611 82.7777 20.7611H90.6913C92.1058 20.7611 93.4057 21.1051 94.5908 21.7933C95.7759 22.4814 96.7189 23.4053 97.4198 24.5649C98.1335 25.7246 98.4903 27.0372 98.4903 28.5026C98.4903 29.4584 98.3437 30.3249 98.0506 31.1023C97.7575 31.8796 97.4135 32.5359 97.0184 33.0711C96.6361 33.6064 96.2857 34.0014 95.9671 34.2563C97.3816 35.8237 98.0889 37.6651 98.0889 39.7805L98.1271 47.8088C98.1271 47.9363 98.0634 48 97.9359 48H93.5012C93.3993 48 93.3483 47.9618 93.3483 47.8853V39.7805C93.3483 38.8375 93.017 38.0219 92.3543 37.3338C91.6917 36.6457 90.8761 36.3016 89.9076 36.3016H87.3271L87.2889 47.8088C87.2889 47.9363 87.2379 48 87.1359 48ZM90.6913 25.4442H87.3271V31.5993H90.6913C91.4942 31.5993 92.2078 31.2998 92.8322 30.7009C93.4694 30.1019 93.788 29.3692 93.788 28.5026C93.788 27.6743 93.4821 26.9607 92.8704 26.3618C92.2588 25.7501 91.5324 25.4442 90.6913 25.4442ZM106.06 48H101.625C101.498 48 101.434 47.9363 101.434 47.8088L101.472 20.914C101.472 20.812 101.523 20.7611 101.625 20.7611H106.022C106.124 20.7611 106.175 20.812 106.175 20.914L106.213 47.8088C106.213 47.9363 106.162 48 106.06 48ZM116.86 47.9618L109.845 48C109.717 48 109.653 47.9363 109.653 47.8088L109.73 20.914C109.73 20.812 109.781 20.7611 109.883 20.7611L117.204 20.7228C118.657 20.6846 119.969 21.0159 121.142 21.7168C122.327 22.4177 123.27 23.3671 123.971 24.5649C124.684 25.7501 125.041 27.0626 125.041 28.5026V39.7423C125.041 41.246 124.678 42.6223 123.952 43.8711C123.212 45.1073 122.231 46.0949 121.008 46.834C119.784 47.5604 118.402 47.9363 116.86 47.9618ZM117.204 25.406L114.47 25.4442L114.432 43.183H116.86C117.828 43.183 118.644 42.8453 119.307 42.1699C119.969 41.4945 120.301 40.6853 120.301 39.7423V28.4644C120.301 27.6361 119.995 26.9161 119.383 26.3044C118.771 25.68 118.045 25.3805 117.204 25.406ZM140.926 48H128.272C128.17 48 128.119 47.9363 128.119 47.8088L128.157 20.914C128.157 20.812 128.208 20.7611 128.31 20.7611H140.887C140.989 20.7611 141.04 20.8248 141.04 20.9522V25.3295C141.04 25.4315 140.989 25.4825 140.887 25.4825H132.859V31.5993H140.887C140.989 31.5993 141.04 31.6503 141.04 31.7522L141.079 36.1869C141.079 36.2888 141.028 36.3398 140.926 36.3398H132.859V43.183H140.926C141.028 43.183 141.079 43.2467 141.079 43.3742V47.8471C141.079 47.949 141.028 48 140.926 48Z" fill="black"/>
</svg>
